<?xml version="1.0" encoding="UTF-8" standalone="no"?>
<!DOCTYPE svg PUBLIC "-//W3C//DTD SVG 1.1//EN"
 "http://www.w3.org/Graphics/SVG/1.1/DTD/svg11.dtd">
<!-- Generated by graphviz version 9.0.0 (20230911.1827)
 -->
<!-- Title: supply&#45;chain&#45;diagram Pages: 1 -->
<svg width="281pt" height="495pt"
 viewBox="0.00 0.00 280.62 495.00" xmlns="http://www.w3.org/2000/svg" xmlns:xlink="http://www.w3.org/1999/xlink">
<g id="graph0" class="graph" transform="scale(1 1) rotate(0) translate(4 491)">
<title>supply&#45;chain&#45;diagram</title>
<polygon fill="white" stroke="none" points="-4,4 -4,-491 276.62,-491 276.62,4 -4,4"/>
<!-- Foxconn -->
<g id="node1" class="node">
<title>Foxconn</title>
<polygon fill="white" stroke="none" points="96.5,-123 96.5,-148.5 181.25,-148.5 181.25,-123 96.5,-123"/>
<polygon fill="none" stroke="black" points="96.5,-123 96.5,-148.5 181.25,-148.5 181.25,-123 96.5,-123"/>
<text text-anchor="start" x="99.5" y="-133.2" font-family="Segoe UI Emoji" font-weight="bold" font-size="14.00">Foxconn</text>
<text text-anchor="start" x="158" y="-133.2" font-family="Segoe UI Emoji" font-size="14.00"> 🇹🇼</text>
</g>
<!-- iPhone X -->
<g id="node9" class="node">
<title>iPhone X</title>
<polygon fill="#8ee5ee" stroke="none" points="84.38,0 84.38,-50 193.38,-50 193.38,0 84.38,0"/>
<polygon fill="none" stroke="black" points="84.38,-25 84.38,-50 152.38,-50 152.38,-25 84.38,-25"/>
<text text-anchor="start" x="87.25" y="-34.7" font-family="Segoe UI Emoji" font-weight="bold" font-size="14.00">iPhone X</text>
<polygon fill="none" stroke="black" points="152.38,-25 152.38,-50 180.38,-50 180.38,-25 152.38,-25"/>
<text text-anchor="start" x="155.12" y="-33.7" font-family="Segoe UI Emoji" font-size="14.00">164</text>
<polygon fill="none" stroke="black" points="180.38,-25 180.38,-50 193.38,-50 193.38,-25 180.38,-25"/>
<text text-anchor="start" x="183.12" y="-33.7" font-family="Segoe UI Emoji" font-size="14.00">1</text>
<polygon fill="none" stroke="black" points="84.38,0 84.38,-25 193.38,-25 193.38,0 84.38,0"/>
<text text-anchor="start" x="90.12" y="-8.7" font-family="Segoe UI Emoji" font-size="14.00">0.1647 kg CO2e</text>
</g>
<!-- Foxconn&#45;&gt;iPhone X -->
<g id="edge8" class="edge">
<title>Foxconn&#45;&gt;iPhone X</title>
<path fill="none" stroke="black" d="M138.88,-123.11C138.88,-108.41 138.88,-82.45 138.88,-61.06"/>
<polygon fill="black" stroke="black" points="142.38,-61.27 138.88,-51.27 135.38,-61.27 142.38,-61.27"/>
</g>
<!-- Samsung Display -->
<g id="node2" class="node">
<title>Samsung Display</title>
<polygon fill="white" stroke="none" points="0,-363 0,-388.5 141.75,-388.5 141.75,-363 0,-363"/>
<polygon fill="none" stroke="black" points="0,-363 0,-388.5 141.75,-388.5 141.75,-363 0,-363"/>
<text text-anchor="start" x="3" y="-373.2" font-family="Segoe UI Emoji" font-weight="bold" font-size="14.00">Samsung Display</text>
<text text-anchor="start" x="121.5" y="-373.2" font-family="Segoe UI Emoji" font-size="14.00"> 🇰🇷</text>
</g>
<!-- OLED Display -->
<g id="node5" class="node">
<title>OLED Display</title>
<polygon fill="#8ee5ee" stroke="none" points="4.38,-240 4.38,-290 137.38,-290 137.38,-240 4.38,-240"/>
<polygon fill="none" stroke="black" points="4.38,-265 4.38,-290 103.38,-290 103.38,-265 4.38,-265"/>
<text text-anchor="start" x="7.38" y="-274.7" font-family="Segoe UI Emoji" font-weight="bold" font-size="14.00">OLED Display</text>
<polygon fill="none" stroke="black" points="103.38,-265 103.38,-290 124.38,-290 124.38,-265 103.38,-265"/>
<text text-anchor="start" x="106.38" y="-273.7" font-family="Segoe UI Emoji" font-size="14.00">35</text>
<polygon fill="none" stroke="black" points="124.38,-265 124.38,-290 137.38,-290 137.38,-265 124.38,-265"/>
<text text-anchor="start" x="127.12" y="-273.7" font-family="Segoe UI Emoji" font-size="14.00">1</text>
<polygon fill="none" stroke="black" points="4.38,-240 4.38,-265 137.38,-265 137.38,-240 4.38,-240"/>
<text text-anchor="start" x="22.12" y="-248.7" font-family="Segoe UI Emoji" font-size="14.00">0.0000 kg CO2e</text>
</g>
<!-- Samsung Display&#45;&gt;OLED Display -->
<g id="edge3" class="edge">
<title>Samsung Display&#45;&gt;OLED Display</title>
<path fill="none" stroke="black" d="M70.88,-363.11C70.88,-345.69 70.88,-312.45 70.88,-289.76"/>
</g>
<!-- Glass -->
<g id="node3" class="node">
<title>Glass</title>
<polygon fill="#ee6a50" stroke="none" points="16.5,-461.5 16.5,-487 59.25,-487 59.25,-461.5 16.5,-461.5"/>
<polygon fill="none" stroke="black" points="16.5,-461.5 16.5,-487 59.25,-487 59.25,-461.5 16.5,-461.5"/>
<text text-anchor="start" x="19.5" y="-471.7" font-family="Segoe UI Emoji" font-weight="bold" font-size="14.00">Glass</text>
</g>
<!-- Glass&#45;&gt;Samsung Display -->
<g id="edge1" class="edge">
<title>Glass&#45;&gt;Samsung Display</title>
<path fill="none" stroke="black" d="M41.79,-461.8C47.05,-446.43 56.5,-418.8 63.2,-399.2"/>
<polygon fill="black" stroke="black" points="66.45,-400.51 66.37,-389.92 59.82,-398.25 66.45,-400.51"/>
</g>
<!-- Plastic -->
<g id="node4" class="node">
<title>Plastic</title>
<polygon fill="#ee6a50" stroke="none" points="77,-461.5 77,-487 128.75,-487 128.75,-461.5 77,-461.5"/>
<polygon fill="none" stroke="black" points="77,-461.5 77,-487 128.75,-487 128.75,-461.5 77,-461.5"/>
<text text-anchor="start" x="80" y="-471.7" font-family="Segoe UI Emoji" font-weight="bold" font-size="14.00">Plastic</text>
</g>
<!-- Plastic&#45;&gt;Samsung Display -->
<g id="edge2" class="edge">
<title>Plastic&#45;&gt;Samsung Display</title>
<path fill="none" stroke="black" d="M99.08,-461.8C93.98,-446.43 84.82,-418.8 78.32,-399.2"/>
<polygon fill="black" stroke="black" points="81.71,-398.31 75.24,-389.92 75.07,-400.51 81.71,-398.31"/>
</g>
<!-- OLED Display&#45;&gt;Foxconn -->
<g id="edge4" class="edge">
<title>OLED Display&#45;&gt;Foxconn</title>
<path fill="none" stroke="black" d="M74.38,-240.2C77.54,-223.75 83.25,-201.8 93.13,-184.5 99.12,-173.99 107.93,-164.04 116.23,-155.97"/>
<polygon fill="black" stroke="black" points="118.46,-158.68 123.43,-149.33 113.71,-153.53 118.46,-158.68"/>
<text text-anchor="middle" x="136.25" y="-190.7" font-family="Segoe UI Emoji" font-size="14.00">1588 km (✈)</text>
</g>
<!-- LG Chem -->
<g id="node6" class="node">
<title>LG Chem</title>
<polygon fill="white" stroke="none" points="164.12,-363 164.12,-388.5 249.62,-388.5 249.62,-363 164.12,-363"/>
<polygon fill="none" stroke="black" points="164.12,-363 164.12,-388.5 249.62,-388.5 249.62,-363 164.12,-363"/>
<text text-anchor="start" x="167.12" y="-373.2" font-family="Segoe UI Emoji" font-weight="bold" font-size="14.00">LG Chem</text>
<text text-anchor="start" x="229.38" y="-373.2" font-family="Segoe UI Emoji" font-size="14.00"> 🇰🇷</text>
</g>
<!-- Battery -->
<g id="node8" class="node">
<title>Battery</title>
<polygon fill="#8ee5ee" stroke="none" points="155.38,-240 155.38,-290 258.38,-290 258.38,-240 155.38,-240"/>
<polygon fill="none" stroke="black" points="155.38,-265 155.38,-290 217.38,-290 217.38,-265 155.38,-265"/>
<text text-anchor="start" x="161.62" y="-274.7" font-family="Segoe UI Emoji" font-weight="bold" font-size="14.00">Battery</text>
<polygon fill="none" stroke="black" points="217.38,-265 217.38,-290 241.38,-290 241.38,-265 217.38,-265"/>
<text text-anchor="start" x="221.88" y="-273.7" font-family="Segoe UI Emoji" font-size="14.00">45</text>
<polygon fill="none" stroke="black" points="241.38,-265 241.38,-290 258.38,-290 258.38,-265 241.38,-265"/>
<text text-anchor="start" x="246.12" y="-273.7" font-family="Segoe UI Emoji" font-size="14.00">1</text>
<polygon fill="none" stroke="black" points="155.38,-240 155.38,-265 258.38,-265 258.38,-240 155.38,-240"/>
<text text-anchor="start" x="158.12" y="-248.7" font-family="Segoe UI Emoji" font-size="14.00">0.0000 kg CO2e</text>
</g>
<!-- LG Chem&#45;&gt;Battery -->
<g id="edge6" class="edge">
<title>LG Chem&#45;&gt;Battery</title>
<path fill="none" stroke="black" d="M206.88,-363.11C206.88,-345.69 206.88,-312.45 206.88,-289.76"/>
</g>
<!-- Lithium -->
<g id="node7" class="node">
<title>Lithium</title>
<polygon fill="#ee6a50" stroke="none" points="177.62,-461.5 177.62,-487 236.12,-487 236.12,-461.5 177.62,-461.5"/>
<polygon fill="none" stroke="black" points="177.62,-461.5 177.62,-487 236.12,-487 236.12,-461.5 177.62,-461.5"/>
<text text-anchor="start" x="180.62" y="-471.7" font-family="Segoe UI Emoji" font-weight="bold" font-size="14.00">Lithium</text>
</g>
<!-- Lithium&#45;&gt;LG Chem -->
<g id="edge5" class="edge">
<title>Lithium&#45;&gt;LG Chem</title>
<path fill="none" stroke="black" d="M206.88,-461.8C206.88,-446.58 206.88,-419.31 206.88,-399.76"/>
<polygon fill="black" stroke="black" points="210.38,-400 206.88,-390 203.38,-400 210.38,-400"/>
</g>
<!-- Battery&#45;&gt;Foxconn -->
<g id="edge7" class="edge">
<title>Battery&#45;&gt;Foxconn</title>
<path fill="none" stroke="black" d="M200.46,-240.13C195.55,-223.85 187.9,-202.12 177.88,-184.5 172.34,-174.77 164.81,-165.01 157.85,-156.88"/>
<polygon fill="black" stroke="black" points="160.63,-154.75 151.37,-149.61 155.41,-159.4 160.63,-154.75"/>
<text text-anchor="middle" x="230.25" y="-190.7" font-family="Segoe UI Emoji" font-size="14.00">1656 km (✈)</text>
</g>
</g>
</svg>
